Coordinates
version=1
nRows=22
nColumns=24
inDegrees=yes

Units are S.I. units (second, meters, Newtons, ...)
Angles are in degrees.

endheader
time	pelvis_tilt	pelvis_list	pelvis_rotation	pelvis_tx	pelvis_ty	pelvis_tz	hip_flexion_r	hip_adduction_r	hip_rotation_r	knee_angle_r	ankle_angle_r	subtalar_angle_r	mtp_angle_r	hip_flexion_l	hip_adduction_l	hip_rotation_l	knee_angle_l	ankle_angle_l	subtalar_angle_l	mtp_angle_l	lumbar_extension	lumbar_bending	lumbar_rotation
      0.01000000	     65.59892189	      4.55873412	     -0.65027331	      0.76862679	      1.02329865	     -0.28378609	      5.70187376	     -8.04317410	      7.31072699	     -2.22112078	    -11.34927218	    -15.63230173	     -6.19584227	     -2.35993833	     -3.93842751	    -10.84243317	    -61.46606168	      1.61118162	     -7.55970524	    -40.69220975	      0.00000000	      0.00000000	      0.00000000
      0.02000000	     65.59376729	      4.55816661	     -0.64129181	      0.76863796	      1.02332734	     -0.28379999	      5.70183945	     -8.04557949	      7.30288614	     -2.23032742	    -11.34616359	    -15.63155220	     -6.18994369	     -2.35788890	     -3.94041760	    -10.84319940	    -61.45875419	      1.61329769	     -7.55439561	    -40.70909529	      0.00000000	      0.00000000	      0.00000000
      0.03000000	     65.59023447	      4.55784434	     -0.63696265	      0.76864402	      1.02333243	     -0.28380819	      5.70157200	     -8.04722733	      7.29772748	     -2.23781448	    -11.34272473	    -15.62914177	     -6.18209361	     -2.35494029	     -3.94119793	    -10.84326846	    -61.45670594	      1.61561444	     -7.55064518	    -40.72897269	      0.00000000	      0.00000000	      0.00000000
      0.04000000	     65.58787153	      4.55752618	     -0.63540912	      0.76864779	      1.02332256	     -0.28381352	      5.70078587	     -8.04853345	      7.29549825	     -2.24338496	    -11.33869930	    -15.62545133	     -6.17189911	     -2.35140325	     -3.94124102	    -10.84298930	    -61.45833396	      1.61718313	     -7.54846258	    -40.75250810	      0.00000000	      0.00000000	      0.00000000
      0.05000000	     65.58621323	      4.55697309	     -0.63478234	      0.76865105	      1.02331080	     -0.28381722	      5.69915265	     -8.04990747	      7.29624562	     -2.24693993	    -11.33396641	    -15.62108484	     -6.15907566	     -2.34763605	     -3.94100041	    -10.84265697	    -61.46185483	      1.61700669	     -7.54791722	    -40.78016712	      0.00000000	      0.00000000	      0.00000000
      0.06000000	     65.58482286	      4.55612783	     -0.63390233	      0.76865389	      1.02330430	     -0.28381926	      5.69643377	     -8.05158742	      7.29956736	     -2.24867711	    -11.32868957	    -15.61685136	     -6.14361706	     -2.34404991	     -3.94081008	    -10.84237852	    -61.46570885	      1.61440167	     -7.54908259	    -40.81190356	      0.00000000	      0.00000000	      0.00000000
      0.07000000	     65.58345544	      4.55524320	     -0.63241647	      0.76865683	      1.02330129	     -0.28382064	      5.69270745	     -8.05358255	      7.30451677	     -2.24912352	    -11.32332309	    -15.61374834	     -6.12584904	     -2.34106135	     -3.94092290	    -10.84207655	    -61.46877258	      1.60921192	     -7.55191367	    -40.84703407	      0.00000000	      0.00000000	      0.00000000
      0.08000000	     65.58221516	      4.55467814	     -0.63054927	      0.76866003	      1.02329907	     -0.28382243	      5.68850906	     -8.05574813	      7.30970440	     -2.24899528	    -11.31848741	    -15.61291938	     -6.10639565	     -2.33895152	     -3.94145452	    -10.84162716	    -61.47047111	      1.60185263	     -7.55611585	    -40.88426229	      0.00000000	      0.00000000	      0.00000000
      0.09000000	     65.58141761	      4.55453667	     -0.62872437	      0.76866181	      1.02329744	     -0.28382431	      5.68464059	     -8.05788553	      7.31358885	     -2.24905751	    -11.31478118	    -15.61552395	     -6.08609475	     -2.33773002	     -3.94224986	    -10.84099583	    -61.47077400	      1.59321074	     -7.56108436	    -40.92180112	      0.00000000	      0.00000000	      0.00000000
      0.10000000	     65.58121192	      4.55457784	     -0.62731128	      0.76866061	      1.02329590	     -0.28382646	      5.68180238	     -8.05977828	      7.31488944	     -2.25007015	    -11.31260459	    -15.62247551	     -6.06589517	     -2.33717342	     -3.94291596	    -10.84024678	    -61.47005203	      1.58443776	     -7.56597137	    -40.95754447	      0.00000000	      0.00000000	      0.00000000
      0.11000000	     65.58135082	      4.55442374	     -0.62656361	      0.76865751	      1.02329416	     -0.28383022	      5.68038065	     -8.06121628	      7.31298073	     -2.25273985	    -11.31204348	    -15.63409013	     -6.04676599	     -2.33700478	     -3.94305862	    -10.83947829	    -61.46886023	      1.57668634	     -7.56986278	    -40.98925935	      0.00000000	      0.00000000	      0.00000000
      0.12000000	     65.58137001	      4.55388997	     -0.62669203	      0.76865489	      1.02329384	     -0.28383571	      5.68043387	     -8.06200553	      7.30812861	     -2.25760663	    -11.31283534	    -15.64977308	     -6.02964027	     -2.33695508	     -3.94255027	    -10.83879622	    -61.46770366	      1.57087994	     -7.57198352	    -41.01479073	      0.00000000	      0.00000000	      0.00000000
      0.13000000	     65.58092930	      4.55320679	     -0.62788710	      0.76865264	      1.02329464	     -0.28384106	      5.68174670	     -8.06191720	      7.30151045	     -2.26489842	    -11.31441033	    -15.66790643	     -6.01539545	     -2.33672467	     -3.94159865	    -10.83834942	    -61.46685953	      1.56756087	     -7.57184889	    -41.03227005	      0.00000000	      0.00000000	      0.00000000
      0.14000000	     65.58001529	      4.55287736	     -0.63014542	      0.76864842	      1.02329348	     -0.28384246	      5.68395733	     -8.06069741	      7.29502851	     -2.27440500	    -11.31598103	    -15.68606547	     -6.00485238	     -2.33603739	     -3.94055655	    -10.83834979	    -61.46633240	      1.56681383	     -7.56933266	    -41.04030759	      0.00000000	      0.00000000	      0.00000000
      0.15000000	     65.57891233	      4.55323558	     -0.63307751	      0.76864241	      1.02329080	     -0.28383551	      5.68669747	     -8.05828116	      7.29093377	     -2.28545048	    -11.31667008	    -15.70155768	     -5.99876802	     -2.33476489	     -3.93970269	    -10.83899230	    -61.46593960	      1.56826734	     -7.56465392	    -41.03814828	      0.00000000	      0.00000000	      0.00000000
      0.16000000	     65.57791395	      4.55414712	     -0.63599422	      0.76863823	      1.02329008	     -0.28382075	      5.68957002	     -8.05507245	      7.29128141	     -2.29706193	    -11.31568390	    -15.71211125	     -5.99780560	     -2.33300613	     -3.93925899	    -10.84028438	    -61.46546003	      1.57118375	     -7.55830089	    -41.02577584	      0.00000000	      0.00000000	      0.00000000
      0.17000000	     65.57704162	      4.55507445	     -0.63823327	      0.76863717	      1.02329049	     -0.28380667	      5.69208259	     -8.05200302	      7.29727530	     -2.30826231	    -11.31250331	    -15.71648122	     -6.00247524	     -2.33107120	     -3.93953137	    -10.84192207	    -61.46478592	      1.57463813	     -7.55092008	    -41.00395444	      0.00000000	      0.00000000	      0.00000000
      0.18000000	     65.57615799	      4.55527515	     -0.63944766	      0.76863638	      1.02328807	     -0.28380156	      5.69377408	     -8.05027625	      7.30863723	     -2.31830975	    -11.30702489	    -15.71479500	     -6.01305303	     -2.32931376	     -3.94083274	    -10.84337077	    -61.46399872	      1.57775269	     -7.54319275	    -40.97419960	      0.00000000	      0.00000000	      0.00000000
      0.19000000	     65.57526835	      4.55417092	     -0.63970073	      0.76863433	      1.02328322	     -0.28380225	      5.69444755	     -8.05073665	      7.32325475	     -2.32681839	    -11.29961739	    -15.70852178	     -6.02950637	     -2.32793540	     -3.94318569	    -10.84412718	    -61.46330165	      1.57992025	     -7.53572953	    -40.93867082	      0.00000000	      0.00000000	      0.00000000
      0.20000000	     65.57446326	      4.55199595	     -0.63932948	      0.76863427	      1.02327958	     -0.28379764	      5.69422455	     -8.05288895	      7.33742710	     -2.33378543	    -11.29108481	    -15.70004696	     -6.05146106	     -2.32700186	     -3.94599489	    -10.84400970	    -61.46287632	      1.58094959	     -7.52900624	    -40.89998935	      0.00000000	      0.00000000	      0.00000000
      0.21000000	     65.57360372	      4.55013772	     -0.63869922	      0.76864011	      1.02327756	     -0.28378786	      5.69333902	     -8.05450427	      7.34690528	     -2.33954233	    -11.28253005	    -15.69198907	     -6.07823028	     -2.32653347	     -3.94807690	    -10.84327699	    -61.46277289	      1.58110838	     -7.52334728	    -40.86100349	      0.00000000	      0.00000000	      0.00000000
      0.22000000	     65.57237054	      4.55014130	     -0.63804693	      0.76865134	      1.02327638	     -0.28378782	      5.69194421	     -8.05319001	      7.34850964	     -2.34461108	    -11.27514556	    -15.68649436	     -6.10889206	     -2.32638963	     -3.94838466	    -10.84243377	    -61.46287130	      1.58104493	     -7.51894565	    -40.82452945	      0.00000000	      0.00000000	      0.00000000
